<svg xmlns="http://www.w3.org/2000/svg" version="1.1" xmlns:xlink="http://www.w3.org/1999/xlink" xmlns:svgjs="http://svgjs.dev/svgjs" viewBox="0 0 11.972187915799626 12.01097972032533"><g transform="matrix(1,0,0,1,0.9992970828998136,9.886682637425517)"><g><path d=" M 0.498 0.2954999999999999 L 0.17400000000000002 1.0574999999999999 Q 0.1635 1.0859999999999999 0.14175000000000001 1.1017499999999998 Q 0.12 1.1175 0.0945 1.1175 Q 0.054 1.1175 0.0345 1.095 Q 0.015 1.0724999999999998 0.015 1.0394999999999999 Q 0.015 1.0259999999999998 0.0195 1.011 L 0.393 0.11399999999999988 Q 0.405 0.08399999999999985 0.42975 0.0674999999999999 Q 0.4545 0.050999999999999934 0.483 0.053999999999999826 Q 0.51 0.053999999999999826 0.53325 0.06974999999999976 Q 0.5565 0.08549999999999991 0.5670000000000001 0.11399999999999988 L 0.936 0.9929999999999999 Q 0.9435 1.0125 0.9435 1.029 Q 0.9435 1.0695 0.91725 1.0935 Q 0.891 1.1175 0.8595 1.1175 Q 0.8325 1.1175 0.81075 1.101 Q 0.789 1.0844999999999998 0.777 1.0559999999999998 L 0.4545 0.3044999999999999 L 0.498 0.2954999999999999 M 0.2205 0.8744999999999998 L 0.303 0.7019999999999998 L 0.708 0.7019999999999998 L 0.7365 0.8744999999999998 L 0.2205 0.8744999999999998 M 1.499965576171875 0.29249999999999987 Q 1.610965576171875 0.29249999999999987 1.668715576171875 0.33899999999999986 Q 1.726465576171875 0.38549999999999984 1.7482155761718752 0.4627499999999999 Q 1.769965576171875 0.5399999999999998 1.769965576171875 0.6344999999999998 L 1.769965576171875 1.0185 Q 1.769965576171875 1.0574999999999999 1.744465576171875 1.0837499999999998 Q 1.718965576171875 1.1099999999999999 1.679965576171875 1.1099999999999999 Q 1.640965576171875 1.1099999999999999 1.615465576171875 1.0837499999999998 Q 1.589965576171875 1.0574999999999999 1.589965576171875 1.0185 L 1.589965576171875 0.6344999999999998 Q 1.589965576171875 0.5849999999999999 1.577215576171875 0.5452499999999999 Q 1.5644655761718749 0.5054999999999998 1.531465576171875 0.4814999999999998 Q 1.498465576171875 0.4574999999999999 1.436965576171875 0.4574999999999999 Q 1.376965576171875 0.4574999999999999 1.335715576171875 0.4814999999999998 Q 1.294465576171875 0.5054999999999998 1.272715576171875 0.5452499999999999 Q 1.250965576171875 0.5849999999999999 1.250965576171875 0.6344999999999998 L 1.250965576171875 1.0185 Q 1.250965576171875 1.0574999999999999 1.225465576171875 1.0837499999999998 Q 1.199965576171875 1.1099999999999999 1.1609655761718751 1.1099999999999999 Q 1.121965576171875 1.1099999999999999 1.096465576171875 1.0837499999999998 Q 1.070965576171875 1.0574999999999999 1.070965576171875 1.0185 L 1.070965576171875 0.3989999999999999 Q 1.070965576171875 0.3599999999999999 1.096465576171875 0.3337499999999999 Q 1.121965576171875 0.3074999999999999 1.1609655761718751 0.3074999999999999 Q 1.199965576171875 0.3074999999999999 1.225465576171875 0.3337499999999999 Q 1.250965576171875 0.3599999999999999 1.250965576171875 0.3989999999999999 L 1.250965576171875 0.4634999999999999 L 1.228465576171875 0.45899999999999985 Q 1.241965576171875 0.4334999999999999 1.267465576171875 0.4042499999999999 Q 1.292965576171875 0.3749999999999999 1.327465576171875 0.3494999999999998 Q 1.361965576171875 0.32399999999999984 1.405465576171875 0.3082499999999999 Q 1.448965576171875 0.29249999999999987 1.499965576171875 0.29249999999999987 M 2.62947802734375 -2.220446049250313e-16 Q 2.66847802734375 -2.220446049250313e-16 2.69397802734375 0.025499999999999856 Q 2.71947802734375 0.050999999999999934 2.71947802734375 0.09149999999999991 L 2.71947802734375 1.0185 Q 2.71947802734375 1.0574999999999999 2.69397802734375 1.0837499999999998 Q 2.66847802734375 1.1099999999999999 2.62947802734375 1.1099999999999999 Q 2.59047802734375 1.1099999999999999 2.56497802734375 1.0837499999999998 Q 2.5394780273437503 1.0574999999999999 2.5394780273437503 1.0185 L 2.5394780273437503 0.9449999999999998 L 2.57247802734375 0.9584999999999999 Q 2.57247802734375 0.9779999999999999 2.55147802734375 1.00575 Q 2.53047802734375 1.0334999999999999 2.49447802734375 1.0604999999999998 Q 2.45847802734375 1.0875 2.40972802734375 1.10625 Q 2.36097802734375 1.1249999999999998 2.3039780273437502 1.1249999999999998 Q 2.20047802734375 1.1249999999999998 2.1164780273437502 1.07175 Q 2.03247802734375 1.0185 1.98372802734375 0.9247499999999998 Q 1.93497802734375 0.8309999999999998 1.93497802734375 0.7094999999999998 Q 1.93497802734375 0.5864999999999999 1.98372802734375 0.4927499999999999 Q 2.03247802734375 0.3989999999999999 2.11497802734375 0.3457499999999999 Q 2.19747802734375 0.29249999999999987 2.29797802734375 0.29249999999999987 Q 2.36247802734375 0.29249999999999987 2.41647802734375 0.31199999999999983 Q 2.47047802734375 0.3314999999999999 2.51022802734375 0.3614999999999998 Q 2.54997802734375 0.39149999999999985 2.57172802734375 0.4222499999999999 Q 2.59347802734375 0.45299999999999985 2.59347802734375 0.47399999999999987 L 2.5394780273437503 0.4934999999999998 L 2.5394780273437503 0.09149999999999991 Q 2.5394780273437503 0.05249999999999977 2.56497802734375 0.026249999999999885 Q 2.59047802734375 -2.220446049250313e-16 2.62947802734375 -2.220446049250313e-16 M 2.32647802734375 0.9599999999999999 Q 2.39247802734375 0.9599999999999999 2.44197802734375 0.9269999999999998 Q 2.4914780273437502 0.8939999999999999 2.51922802734375 0.8369999999999999 Q 2.54697802734375 0.7799999999999998 2.54697802734375 0.7094999999999998 Q 2.54697802734375 0.6374999999999998 2.51922802734375 0.5804999999999999 Q 2.4914780273437502 0.5234999999999999 2.44197802734375 0.4904999999999998 Q 2.39247802734375 0.4574999999999999 2.32647802734375 0.4574999999999999 Q 2.26197802734375 0.4574999999999999 2.21247802734375 0.4904999999999998 Q 2.16297802734375 0.5234999999999999 2.13522802734375 0.5804999999999999 Q 2.10747802734375 0.6374999999999998 2.10747802734375 0.7094999999999998 Q 2.10747802734375 0.7799999999999998 2.13522802734375 0.8369999999999999 Q 2.16297802734375 0.8939999999999999 2.21247802734375 0.9269999999999998 Q 2.26197802734375 0.9599999999999999 2.32647802734375 0.9599999999999999 M 3.019456787109375 1.1099999999999999 Q 2.980456787109375 1.1099999999999999 2.954956787109375 1.0837499999999998 Q 2.929456787109375 1.0574999999999999 2.929456787109375 1.0185 L 2.929456787109375 0.3989999999999999 Q 2.929456787109375 0.3599999999999999 2.954956787109375 0.3337499999999999 Q 2.980456787109375 0.3074999999999999 3.019456787109375 0.3074999999999999 Q 3.058456787109375 0.3074999999999999 3.0839567871093747 0.3337499999999999 Q 3.109456787109375 0.3599999999999999 3.109456787109375 0.3989999999999999 L 3.109456787109375 0.5399999999999998 L 3.098956787109375 0.4394999999999999 Q 3.115456787109375 0.40349999999999986 3.141706787109375 0.3757499999999998 Q 3.167956787109375 0.34799999999999986 3.2009567871093747 0.3292499999999998 Q 3.233956787109375 0.3104999999999999 3.2714567871093747 0.3014999999999999 Q 3.308956787109375 0.29249999999999987 3.346456787109375 0.29249999999999987 Q 3.391456787109375 0.29249999999999987 3.422206787109375 0.31799999999999984 Q 3.452956787109375 0.3434999999999998 3.452956787109375 0.3779999999999999 Q 3.452956787109375 0.4274999999999999 3.427456787109375 0.4492499999999998 Q 3.401956787109375 0.47099999999999986 3.371956787109375 0.47099999999999986 Q 3.3434567871093748 0.47099999999999986 3.320206787109375 0.4604999999999999 Q 3.296956787109375 0.44999999999999984 3.266956787109375 0.44999999999999984 Q 3.239956787109375 0.44999999999999984 3.212206787109375 0.4627499999999999 Q 3.184456787109375 0.4754999999999998 3.161206787109375 0.5024999999999998 Q 3.137956787109375 0.5294999999999999 3.123706787109375 0.5692499999999998 Q 3.109456787109375 0.6089999999999999 3.109456787109375 0.6629999999999998 L 3.109456787109375 1.0185 Q 3.109456787109375 1.0574999999999999 3.0839567871093747 1.0837499999999998 Q 3.058456787109375 1.1099999999999999 3.019456787109375 1.1099999999999999 M 3.933029296875 1.1249999999999998 Q 3.805529296875 1.1249999999999998 3.711779296875 1.07175 Q 3.618029296875 1.0185 3.567779296875 0.9269999999999998 Q 3.5175292968750003 0.8354999999999999 3.5175292968750003 0.7199999999999999 Q 3.5175292968750003 0.5849999999999999 3.572279296875 0.4897499999999999 Q 3.627029296875 0.39449999999999985 3.715529296875 0.3434999999999998 Q 3.804029296875 0.29249999999999987 3.903029296875 0.29249999999999987 Q 3.979529296875 0.29249999999999987 4.047779296875 0.32399999999999984 Q 4.116029296875 0.3554999999999998 4.1685292968750005 0.4102499999999999 Q 4.221029296875 0.46499999999999986 4.251779296875 0.5369999999999998 Q 4.282529296875 0.6089999999999999 4.282529296875 0.69 Q 4.281029296875 0.7259999999999999 4.254029296875 0.7484999999999999 Q 4.227029296875 0.7709999999999999 4.191029296875 0.7709999999999999 L 3.618029296875 0.7709999999999999 L 3.573029296875 0.6209999999999999 L 4.123529296875 0.6209999999999999 L 4.090529296875 0.6509999999999998 L 4.090529296875 0.6104999999999998 Q 4.087529296875 0.5669999999999998 4.059779296875 0.5324999999999999 Q 4.032029296875 0.4979999999999999 3.990779296875 0.4777499999999999 Q 3.949529296875 0.4574999999999999 3.903029296875 0.4574999999999999 Q 3.8580292968750003 0.4574999999999999 3.819029296875 0.4694999999999999 Q 3.780029296875 0.4814999999999998 3.7515292968750003 0.5099999999999999 Q 3.723029296875 0.5384999999999999 3.706529296875 0.5864999999999999 Q 3.690029296875 0.6344999999999998 3.690029296875 0.7079999999999999 Q 3.690029296875 0.7889999999999999 3.723779296875 0.8452499999999998 Q 3.757529296875 0.9014999999999999 3.8107792968750003 0.9307499999999999 Q 3.864029296875 0.9599999999999999 3.924029296875 0.9599999999999999 Q 3.979529296875 0.9599999999999999 4.012529296875 0.9509999999999998 Q 4.045529296875 0.9419999999999998 4.065779296875 0.9292499999999999 Q 4.086029296875 0.9164999999999999 4.102529296875 0.9074999999999999 Q 4.129529296875 0.8939999999999999 4.153529296875 0.8939999999999999 Q 4.186529296875 0.8939999999999999 4.208279296875 0.9164999999999999 Q 4.230029296875 0.9389999999999998 4.230029296875 0.9689999999999999 Q 4.230029296875 1.0094999999999998 4.188029296875 1.0425 Q 4.149029296875 1.0755 4.078529296875 1.10025 Q 4.008029296875 1.1249999999999998 3.933029296875 1.1249999999999998 M 5.371554931640626 0.3074999999999999 Q 5.406054931640625 0.3074999999999999 5.431554931640625 0.3337499999999999 Q 5.457054931640625 0.3599999999999999 5.457054931640625 0.40049999999999986 Q 5.457054931640625 0.4109999999999998 5.455554931640625 0.4192499999999999 Q 5.454054931640625 0.4274999999999999 5.451054931640625 0.43499999999999983 L 5.221554931640625 1.053 Q 5.211054931640625 1.083 5.184054931640625 1.09875 Q 5.157054931640626 1.1144999999999998 5.127054931640625 1.1099999999999999 Q 5.076054931640625 1.107 5.050554931640625 1.053 L 4.902054931640626 0.6255 L 4.941054931640625 0.6269999999999999 L 4.801554931640625 1.053 Q 4.776054931640625 1.107 4.725054931640625 1.1099999999999999 Q 4.696554931640625 1.1144999999999998 4.668804931640625 1.09875 Q 4.6410549316406255 1.083 4.630554931640625 1.053 L 4.401054931640625 0.43499999999999983 Q 4.395054931640625 0.41849999999999987 4.395054931640625 0.40049999999999986 Q 4.395054931640625 0.3644999999999998 4.419054931640625 0.33599999999999985 Q 4.443054931640625 0.3074999999999999 4.485054931640625 0.3074999999999999 Q 4.513554931640625 0.3074999999999999 4.536054931640625 0.32099999999999984 Q 4.558554931640625 0.3344999999999999 4.567554931640625 0.3644999999999998 L 4.749054931640625 0.8564999999999998 L 4.7115549316406256 0.8534999999999999 L 4.848054931640625 0.4829999999999999 Q 4.872054931640625 0.4274999999999999 4.930554931640625 0.4274999999999999 Q 4.963554931640625 0.4274999999999999 4.980804931640625 0.44174999999999986 Q 4.998054931640625 0.45599999999999985 5.008554931640625 0.4829999999999999 L 5.145054931640625 0.8534999999999999 L 5.100054931640625 0.8594999999999999 L 5.284554931640625 0.3644999999999998 Q 5.302554931640625 0.3074999999999999 5.371554931640626 0.3074999999999999 M 6.159106933593749 1.1099999999999999 Q 6.11710693359375 1.1099999999999999 6.0908569335937495 1.0837499999999998 Q 6.064606933593749 1.0574999999999999 6.064606933593749 1.0185 L 6.064606933593749 0.15149999999999986 Q 6.064606933593749 0.11249999999999982 6.0908569335937495 0.08624999999999994 Q 6.11710693359375 0.05999999999999983 6.156106933593749 0.05999999999999983 L 6.64360693359375 0.05999999999999983 Q 6.68260693359375 0.05999999999999983 6.70885693359375 0.08474999999999988 Q 6.73510693359375 0.10949999999999993 6.73510693359375 0.14849999999999985 Q 6.73510693359375 0.18149999999999988 6.70885693359375 0.20699999999999985 Q 6.68260693359375 0.23249999999999982 6.64360693359375 0.23249999999999982 L 6.23860693359375 0.23249999999999982 L 6.252106933593749 0.2144999999999998 L 6.252106933593749 0.5159999999999999 L 6.24160693359375 0.49649999999999983 L 6.576106933593749 0.49649999999999983 Q 6.61510693359375 0.49649999999999983 6.64135693359375 0.5212499999999999 Q 6.667606933593749 0.5459999999999998 6.667606933593749 0.5849999999999999 Q 6.667606933593749 0.6179999999999999 6.64135693359375 0.6434999999999998 Q 6.61510693359375 0.6689999999999998 6.576106933593749 0.6689999999999998 L 6.23860693359375 0.6689999999999998 L 6.252106933593749 0.6554999999999999 L 6.252106933593749 1.0185 Q 6.252106933593749 1.0574999999999999 6.224356933593749 1.0837499999999998 Q 6.19660693359375 1.1099999999999999 6.159106933593749 1.1099999999999999 M 7.255602539062499 1.1249999999999998 Q 7.1281025390625 1.1249999999999998 7.034352539062499 1.07175 Q 6.940602539062499 1.0185 6.8903525390625 0.9269999999999998 Q 6.840102539062499 0.8354999999999999 6.840102539062499 0.7199999999999999 Q 6.840102539062499 0.5849999999999999 6.894852539062499 0.4897499999999999 Q 6.949602539062499 0.39449999999999985 7.038102539062499 0.3434999999999998 Q 7.1266025390625 0.29249999999999987 7.225602539062499 0.29249999999999987 Q 7.302102539062499 0.29249999999999987 7.370352539062499 0.32399999999999984 Q 7.438602539062499 0.3554999999999998 7.491102539062499 0.4102499999999999 Q 7.5436025390624994 0.46499999999999986 7.574352539062499 0.5369999999999998 Q 7.605102539062499 0.6089999999999999 7.605102539062499 0.69 Q 7.603602539062499 0.7259999999999999 7.576602539062499 0.7484999999999999 Q 7.5496025390625 0.7709999999999999 7.513602539062499 0.7709999999999999 L 6.940602539062499 0.7709999999999999 L 6.895602539062499 0.6209999999999999 L 7.446102539062499 0.6209999999999999 L 7.413102539062499 0.6509999999999998 L 7.413102539062499 0.6104999999999998 Q 7.4101025390625 0.5669999999999998 7.3823525390624996 0.5324999999999999 Q 7.354602539062499 0.4979999999999999 7.3133525390625 0.4777499999999999 Q 7.272102539062499 0.4574999999999999 7.225602539062499 0.4574999999999999 Q 7.180602539062499 0.4574999999999999 7.141602539062499 0.4694999999999999 Q 7.1026025390625 0.4814999999999998 7.074102539062499 0.5099999999999999 Q 7.045602539062499 0.5384999999999999 7.0291025390624995 0.5864999999999999 Q 7.012602539062499 0.6344999999999998 7.012602539062499 0.7079999999999999 Q 7.012602539062499 0.7889999999999999 7.046352539062499 0.8452499999999998 Q 7.0801025390625 0.9014999999999999 7.133352539062499 0.9307499999999999 Q 7.186602539062499 0.9599999999999999 7.246602539062499 0.9599999999999999 Q 7.302102539062499 0.9599999999999999 7.3351025390624995 0.9509999999999998 Q 7.368102539062499 0.9419999999999998 7.388352539062499 0.9292499999999999 Q 7.4086025390625 0.9164999999999999 7.425102539062499 0.9074999999999999 Q 7.4521025390624995 0.8939999999999999 7.4761025390624996 0.8939999999999999 Q 7.509102539062499 0.8939999999999999 7.530852539062499 0.9164999999999999 Q 7.552602539062499 0.9389999999999998 7.552602539062499 0.9689999999999999 Q 7.552602539062499 1.0094999999999998 7.510602539062499 1.0425 Q 7.471602539062499 1.0755 7.401102539062499 1.10025 Q 7.330602539062499 1.1249999999999998 7.255602539062499 1.1249999999999998 M 7.723628173828124 0.9854999999999998 Q 7.7086281738281235 0.9644999999999999 7.7101281738281235 0.9314999999999999 Q 7.711628173828124 0.8984999999999999 7.749128173828124 0.8744999999999998 Q 7.773128173828124 0.8594999999999999 7.800128173828124 0.8617499999999999 Q 7.8271281738281235 0.8639999999999999 7.852628173828124 0.8894999999999998 Q 7.8961281738281235 0.9329999999999998 7.9441281738281235 0.9569999999999999 Q 7.992128173828124 0.9809999999999999 8.064128173828124 0.9809999999999999 Q 8.086628173828124 0.9794999999999998 8.113628173828124 0.9742499999999998 Q 8.140628173828125 0.9689999999999999 8.160878173828124 0.9502499999999998 Q 8.181128173828125 0.9314999999999999 8.181128173828125 0.8924999999999998 Q 8.181128173828125 0.8594999999999999 8.158628173828124 0.8399999999999999 Q 8.136128173828125 0.8204999999999999 8.099378173828123 0.8069999999999999 Q 8.062628173828124 0.7934999999999999 8.017628173828124 0.7814999999999999 Q 7.971128173828124 0.7679999999999998 7.922378173828124 0.7514999999999998 Q 7.8736281738281235 0.7349999999999999 7.833128173828124 0.7087499999999999 Q 7.792628173828124 0.6824999999999999 7.767128173828124 0.6389999999999998 Q 7.741628173828124 0.5954999999999999 7.741628173828124 0.5294999999999999 Q 7.741628173828124 0.4544999999999999 7.783628173828124 0.4019999999999999 Q 7.8256281738281235 0.3494999999999998 7.892378173828124 0.32099999999999984 Q 7.959128173828124 0.29249999999999987 8.032628173828124 0.29249999999999987 Q 8.079128173828124 0.29249999999999987 8.130128173828124 0.30374999999999985 Q 8.181128173828125 0.31499999999999984 8.227628173828125 0.3397499999999999 Q 8.274128173828124 0.3644999999999998 8.305628173828124 0.4049999999999999 Q 8.322128173828125 0.4274999999999999 8.325128173828125 0.45899999999999985 Q 8.328128173828123 0.4904999999999998 8.296628173828124 0.5159999999999999 Q 8.274128173828124 0.5339999999999998 8.244128173828123 0.5317499999999998 Q 8.214128173828124 0.5294999999999999 8.194628173828123 0.5114999999999998 Q 8.169128173828124 0.4784999999999998 8.126378173828124 0.45899999999999985 Q 8.083628173828124 0.4394999999999999 8.028128173828124 0.4394999999999999 Q 8.005628173828123 0.4394999999999999 7.979378173828124 0.44474999999999987 Q 7.953128173828124 0.44999999999999984 7.933628173828124 0.46724999999999983 Q 7.914128173828124 0.4844999999999998 7.914128173828124 0.5219999999999999 Q 7.914128173828124 0.5564999999999999 7.936628173828124 0.5767499999999999 Q 7.959128173828124 0.5969999999999999 7.997378173828124 0.6097499999999999 Q 8.035628173828124 0.6224999999999998 8.079128173828124 0.6344999999999998 Q 8.124128173828124 0.6464999999999999 8.170628173828124 0.6629999999999998 Q 8.217128173828124 0.6794999999999999 8.256128173828124 0.7064999999999999 Q 8.295128173828124 0.7334999999999998 8.319128173828124 0.7762499999999999 Q 8.343128173828124 0.819 8.343128173828124 0.8849999999999999 Q 8.343128173828124 0.9614999999999999 8.298128173828124 1.0154999999999998 Q 8.253128173828124 1.0695 8.185628173828125 1.0972499999999998 Q 8.118128173828124 1.1249999999999998 8.047628173828123 1.1249999999999998 Q 7.959128173828124 1.1249999999999998 7.870628173828124 1.09425 Q 7.782128173828124 1.0635 7.723628173828124 0.9854999999999998 M 8.517120117187499 0.3224999999999999 L 8.872620117187498 0.3224999999999999 Q 8.908620117187498 0.3224999999999999 8.932620117187499 0.3464999999999998 Q 8.956620117187498 0.37049999999999983 8.956620117187498 0.40649999999999986 Q 8.956620117187498 0.44099999999999984 8.932620117187499 0.46424999999999983 Q 8.908620117187498 0.4874999999999998 8.872620117187498 0.4874999999999998 L 8.517120117187499 0.4874999999999998 Q 8.481120117187498 0.4874999999999998 8.457120117187499 0.4634999999999999 Q 8.4331201171875 0.4394999999999999 8.4331201171875 0.40349999999999986 Q 8.4331201171875 0.3689999999999999 8.457120117187499 0.3457499999999999 Q 8.481120117187498 0.3224999999999999 8.517120117187499 0.3224999999999999 M 8.677620117187498 0.1349999999999999 Q 8.716620117187498 0.1349999999999999 8.741370117187499 0.1612499999999999 Q 8.766120117187498 0.1874999999999999 8.766120117187498 0.2264999999999998 L 8.766120117187498 0.8939999999999999 Q 8.766120117187498 0.9149999999999998 8.774370117187498 0.9284999999999999 Q 8.782620117187498 0.9419999999999998 8.796870117187499 0.9479999999999998 Q 8.811120117187498 0.9539999999999998 8.827620117187498 0.9539999999999998 Q 8.845620117187499 0.9539999999999998 8.860620117187498 0.9472499999999999 Q 8.875620117187498 0.9404999999999999 8.8951201171875 0.9404999999999999 Q 8.916120117187498 0.9404999999999999 8.933370117187499 0.9599999999999999 Q 8.950620117187498 0.9794999999999998 8.950620117187498 1.0139999999999998 Q 8.950620117187498 1.0559999999999998 8.904870117187498 1.083 Q 8.859120117187498 1.1099999999999999 8.8066201171875 1.1099999999999999 Q 8.775120117187498 1.1099999999999999 8.736870117187499 1.10475 Q 8.698620117187499 1.0995 8.6648701171875 1.0792499999999998 Q 8.631120117187498 1.059 8.608620117187499 1.017 Q 8.586120117187498 0.9749999999999999 8.586120117187498 0.9014999999999999 L 8.586120117187498 0.2264999999999998 Q 8.586120117187498 0.1874999999999999 8.6123701171875 0.1612499999999999 Q 8.638620117187498 0.1349999999999999 8.677620117187498 0.1349999999999999 M 9.786114990234374 0.29249999999999987 Q 9.825114990234374 0.29249999999999987 9.850614990234375 0.31799999999999984 Q 9.876114990234374 0.3434999999999998 9.876114990234374 0.3839999999999999 L 9.876114990234374 1.0185 Q 9.876114990234374 1.0574999999999999 9.850614990234375 1.0837499999999998 Q 9.825114990234374 1.1099999999999999 9.786114990234374 1.1099999999999999 Q 9.747114990234374 1.1099999999999999 9.721614990234373 1.0837499999999998 Q 9.696114990234374 1.0574999999999999 9.696114990234374 1.0185 L 9.696114990234374 0.9449999999999998 L 9.729114990234374 0.9584999999999999 Q 9.729114990234374 0.9779999999999999 9.708114990234375 1.00575 Q 9.687114990234374 1.0334999999999999 9.651114990234374 1.0604999999999998 Q 9.615114990234375 1.0875 9.566364990234375 1.10625 Q 9.517614990234375 1.1249999999999998 9.460614990234374 1.1249999999999998 Q 9.357114990234374 1.1249999999999998 9.273114990234374 1.07175 Q 9.189114990234375 1.0185 9.140364990234374 0.9247499999999998 Q 9.091614990234374 0.8309999999999998 9.091614990234374 0.7094999999999998 Q 9.091614990234374 0.5864999999999999 9.140364990234374 0.4927499999999999 Q 9.189114990234375 0.3989999999999999 9.271614990234374 0.3457499999999999 Q 9.354114990234374 0.29249999999999987 9.454614990234374 0.29249999999999987 Q 9.519114990234375 0.29249999999999987 9.573114990234375 0.31199999999999983 Q 9.627114990234373 0.3314999999999999 9.666864990234375 0.3614999999999998 Q 9.706614990234375 0.39149999999999985 9.728364990234374 0.4222499999999999 Q 9.750114990234374 0.45299999999999985 9.750114990234374 0.47399999999999987 L 9.696114990234374 0.4934999999999998 L 9.696114990234374 0.3839999999999999 Q 9.696114990234374 0.34499999999999986 9.721614990234373 0.31874999999999987 Q 9.747114990234374 0.29249999999999987 9.786114990234374 0.29249999999999987 M 9.483114990234375 0.9599999999999999 Q 9.549114990234374 0.9599999999999999 9.598614990234374 0.9269999999999998 Q 9.648114990234374 0.8939999999999999 9.675864990234373 0.8369999999999999 Q 9.703614990234374 0.7799999999999998 9.703614990234374 0.7094999999999998 Q 9.703614990234374 0.6374999999999998 9.675864990234373 0.5804999999999999 Q 9.648114990234374 0.5234999999999999 9.598614990234374 0.4904999999999998 Q 9.549114990234374 0.4574999999999999 9.483114990234375 0.4574999999999999 Q 9.418614990234374 0.4574999999999999 9.369114990234374 0.4904999999999998 Q 9.319614990234374 0.5234999999999999 9.291864990234375 0.5804999999999999 Q 9.264114990234374 0.6374999999999998 9.264114990234374 0.7094999999999998 Q 9.264114990234374 0.7799999999999998 9.291864990234375 0.8369999999999999 Q 9.319614990234374 0.8939999999999999 9.369114990234374 0.9269999999999998 Q 9.418614990234374 0.9599999999999999 9.483114990234375 0.9599999999999999" fill="#382d5e" fill-rule="nonzero"></path></g><g></g><g clip-path="url(#SvgjsClipPath1001)"><g clip-path="url(#SvgjsClipPath1000e8a76c69-da8e-4017-ba7b-85f1713001af)"><path d=" M 9.249529335755543 -0.24999999999999645 L 9.249529335755543 -0.24999999999999645 L 0.7239155836154477 -0.3142948317317966 C 0.6932662592750347 -0.31454003415742804 0.668549608798841 -0.33945601246004387 0.6685505896241742 -0.37010631761009627 L 0.6685505896241742 -8.831574068647404 C 0.668423576222797 -8.85420353986326 0.682009472386649 -8.874657453959808 0.7029178234980619 -8.883314818091877 C 0.7238261746094747 -8.891972182223945 0.7478947020354252 -8.887109552895051 0.763802192189806 -8.871014185334735 L 9.289415944329901 -0.34540043319464253 C 9.305311669612301 -0.3294007307303559 9.31004909744804 -0.3054224915313739 9.301432392383918 -0.28457982003665094 C 9.292815687319798 -0.263737148541928 9.272529179939133 -0.25010421797375315 9.249975827642567 -0.24999999999999645 Z M 0.7797270694937477 -0.4254713116013722 L 9.114242293986544 -0.3626647861596588 L 0.7797270694937477 -8.697180010652454 Z" fill="#382d5e" transform="matrix(1,0,0,1,0,0)" fill-rule="nonzero"></path></g><g clip-path="url(#SvgjsClipPath1000e8a76c69-da8e-4017-ba7b-85f1713001af)"><path d=" M 9.249529335755543 -0.24999999999999645 C 9.218739441120478 -0.25008177970092405 9.193799629578171 -0.27502159124322745 9.193717849877244 -0.3058114858782961 L 9.193717849877244 -6.927137339850797 L 2.6241850547998054 -0.3576045447733609 C 2.602194603480725 -0.3371136285729541 2.567926353569182 -0.33771825185074 2.5466724410358506 -0.358972164384074 C 2.525418528502519 -0.38022607691740085 2.5248139052247334 -0.4144943268289438 2.5453048214251415 -0.43648477814802433 L 9.21008921906821 -7.101418006420101 C 9.226050323195553 -7.117359277614158 9.2500384912005 -7.122124677539957 9.27088083925879 -7.11349464279707 C 9.291723187317084 -7.104864608054189 9.305320979974505 -7.084536271291624 9.305340821633841 -7.061977889732772 L 9.305340821633841 -0.30506733273325537 C 9.304854172922393 -0.27456843364113226 9.280032019349862 -0.25007724211623383 9.249529335755543 -0.24999999999999645 Z" fill="#382d5e" transform="matrix(1,0,0,1,0,0)" fill-rule="nonzero"></path></g><g clip-path="url(#SvgjsClipPath1000e8a76c69-da8e-4017-ba7b-85f1713001af)"><path d=" M 6.872406529226991 -0.3020907201530747 C 6.857624288815956 -0.3020314491187932 6.843428875050202 -0.3078703174224433 6.832966412539658 -0.318313258715035 L 0.7401381221774068 -6.411588040964313 C 0.718355947834338 -6.433411314457132 0.7183892649554791 -6.468760514191143 0.740212538050773 -6.490542688932486 C 0.7620358111460671 -6.512324863673834 0.7973850108806825 -6.512291547197822 0.8191671860203062 -6.490468274500055 L 6.911846645914323 -0.3977888146057378 C 6.927787917108381 -0.38182771047839914 6.932553317034181 -0.3578395424734513 6.9239232822912955 -0.33699719441515974 C 6.915293247548409 -0.31615484635686997 6.8949649107858475 -0.30255705369944685 6.872406529226991 -0.3025372120401091 Z" fill="#382d5e" transform="matrix(1,0,0,1,0,0)" fill-rule="nonzero"></path></g><g clip-path="url(#SvgjsClipPath1000e8a76c69-da8e-4017-ba7b-85f1713001af)"><path d=" M 5.917211552248512 -1.2577321890185837 C 5.8946260810574005 -1.2576917991654648 5.874242629115625 -1.2712675158633457 5.865574410083696 -1.2921233812033242 C 5.856906191051769 -1.3129792465433026 5.861662143654551 -1.337003528255023 5.877622604932171 -1.3529837915842124 L 9.184639181507707 -4.65985153753074 C 9.206629632826786 -4.680342453731146 9.240897882738329 -4.67973783045336 9.262151795271661 -4.658483917920026 C 9.283405707804992 -4.637230005386698 9.28401033108278 -4.602961755475156 9.26351941488237 -4.580971304156073 L 5.956651668935844 -1.274103558209549 C 5.94618579315723 -1.2636476874153093 5.932005433778256 -1.25776150050328 5.917211552248511 -1.2577321890185837 Z" fill="#382d5e" transform="matrix(1,0,0,1,0,0)" fill-rule="nonzero"></path></g><g clip-path="url(#SvgjsClipPath1000e8a76c69-da8e-4017-ba7b-85f1713001af)"><path d=" M 3.2567152280872054 -1.986258118016658 C 3.0569234750437406 -1.9862581180166607 2.876804504591392 -2.106609766356935 2.800347510778481 -2.2911932777583415 C 2.7238905169655703 -2.475776789159748 2.7661523957243768 -2.6882416012553287 2.9074264991265584 -2.8295157046575143 C 3.04870060252874 -2.9707898080596937 3.2611654146243243 -3.0130516868185007 3.44574892602573 -2.9365946930055893 C 3.6303324374271364 -2.860137699192677 3.7506840857674124 -2.680018728740328 3.750684085767412 -2.4802269756968656 C 3.7503560547630728 -2.207551499182352 3.5293907046017496 -1.9865861490210177 3.256715228087223 -1.9862581180166607 Z M 3.2567152280872054 -2.862572861620473 C 3.1020707527727556 -2.862572861620473 2.9626535683521213 -2.7694172772317485 2.9034736897424893 -2.626544411672784 C 2.844293811132857 -2.4836715461138157 2.8770057022239612 -2.3192177641693883 2.9863558593918444 -2.2098676070015033 C 3.0957060165597277 -2.100517449833622 3.260159798504156 -2.0678055587425153 3.4030326640631237 -2.1269854373521504 C 3.54590552962209 -2.1861653159617838 3.6390611140108127 -2.325582500382419 3.639061114010812 -2.4802269756968656 C 3.6384874577563515 -2.6910562551982355 3.4675451455235775 -2.86173240579266 3.2567152280872076 -2.861977539104438 Z" fill="#382d5e" transform="matrix(1,0,0,1,0,0)" fill-rule="nonzero"></path></g></g></g><defs><clipPath id="SvgjsClipPath1001"><path d=" M 0.6681040977371477 -8.887385554525704 h 8.637385554525704 v 8.637385554525704 h -8.637385554525704 Z"></path></clipPath><clipPath id="SvgjsClipPath1000e8a76c69-da8e-4017-ba7b-85f1713001af"><path d=" M 0.6681040977371477 -8.887385554525704 L 9.305489652262851 -8.887385554525704 L 9.305489652262851 -0.25 L 0.6681040977371477 -0.25 Z"></path></clipPath></defs></svg>